Simulation
nRows=23
nColumns=15
endheader
time  TH_x TH_y TH_z SC_y  SC_z  SC_x  AC_y  AC_z  AC_x  GH_y  GH_z  GH_yy  EL_x  PS_y
4.8020000000000005  0.000000  0.000000  0.000000  -24.90383031169368  19.39471897217992  48.97832022599178  49.83370964383307  -9.863067196070721  1.376414992319514  -10.499871197371501  62.633163522079116  11.60188327062956  13.596565483342737  120.000000
4.850020000000001  0.000000  0.000000  0.000000  -24.96051922933429  20.11706873353214  49.92901237105532  49.23694556700223  -10.899572590752312  0.696097941923645  -10.179766372813235  62.68995576216225  11.08830491239511  13.546735481906222  120.000000
4.898040000000001  0.000000  0.000000  0.000000  -24.804099884427703  20.77080557642888  50.42775694515897  48.56771763493926  -11.727923004990478  -0.11911591467656317  -9.70758751077974  62.42696474067578  10.629704328270272  13.401842100232749  120.000000
4.946060000000001  0.000000  0.000000  0.000000  -24.443713257194577  21.278454112176718  50.56684532932441  47.88793243857568  -12.34155343881375  -1.0168391664656804  -9.17054007174437  61.77499250092422  10.308593059552235  13.20529591824168  120.000000
4.99408  0.000000  0.000000  0.000000  -23.91510619247808  21.59204734147626  50.509630957116805  47.265065912645774  -12.792093369687871  -1.93723793350783  -8.671011857233388  60.65355995730752  10.200571717615176  12.989365036894837  120.000000
5.0421000000000005  0.000000  0.000000  0.000000  -23.2710965405904  21.722062807259835  50.35954870956355  46.75392592203872  -13.142899281611783  -2.822374341959971  -8.290931159255548  58.999154087106334  10.351508788782558  12.777943176515754  120.000000
5.090120000000001  0.000000  0.000000  0.000000  -22.558510424641053  21.669892284800362  50.14906640152313  46.369104749719604  -13.392157439973133  -3.6427501373706797  -8.057465914630281  56.76636406096066  10.762519823866725  12.595367081484326  120.000000
5.138140000000001  0.000000  0.000000  0.000000  -21.816024352408526  21.413060738975613  49.86053100246017  46.089603396684154  -13.478595326197734  -4.398922297167188  -7.951605435694366  53.93300031716163  11.396727238078249  12.462608772460387  120.000000
5.186160000000001  0.000000  0.000000  0.000000  -21.077894447985905  20.98374802019294  49.37359597231045  45.888809190158774  -13.339706366834152  -5.092021284782109  -7.924537962270851  50.531342064375735  12.190612790910814  12.388680574896606  120.000000
5.234180000000001  0.000000  0.000000  0.000000  -20.37244430822136  20.443448404127793  48.563988924469854  45.74594789607978  -12.942732084656534  -5.716256178815348  -7.907584765857212  46.63922403322084  13.071843871543487  12.366408773497346  120.000000
5.2822000000000005  0.000000  0.000000  0.000000  -19.721965310659186  19.83128309374572  47.39114048068505  45.6451949003903  -12.289361863231253  -6.270245904327655  -7.820039886545862  42.36075119183498  13.97797336904527  12.374607591895526  120.000000
5.330220000000001  0.000000  0.000000  0.000000  -19.137398682538127  19.170022511031753  45.86777836499018  45.575611177908726  -11.411825465052141  -6.76547162147238  -7.568783889840421  37.82314065474017  14.85639914692465  12.384382715389062  120.000000
5.378240000000001  0.000000  0.000000  0.000000  -18.618217033573984  18.4679918425303  44.044571645915255  45.52762000389917  -10.369350063429605  -7.231930891870629  -7.0379971482366  33.17084818657654  15.643352152517183  12.370130734281496  120.000000
5.426260000000001  0.000000  0.000000  0.000000  -18.158798180489583  17.72296222121919  41.995804924171885  45.49420062643687  -9.232553333615742  -7.705460091183653  -6.078616664486889  28.552118106853  16.237672890907525  12.318296543704568  120.000000
5.474280000000001  0.000000  0.000000  0.000000  -17.75974494298609  16.929295259972037  39.79984421602943  45.476208654035375  -8.056019593470964  -8.194283270778191  -4.511878601805026  24.099504003506663  16.488679815617413  12.228789658495966  120.000000
5.5223  0.000000  0.000000  0.000000  -17.431080865616703  16.08425097489335  37.532586397237935  45.47963169788563  -6.876140691845921  -8.684071009213545  -2.098651902934515  19.927588573882293  16.163263484860202  12.115090432905268  120.000000
5.570320000000001  0.000000  0.000000  0.000000  -17.186361869370536  15.19028017153818  35.26575444217601  45.50919371784698  -5.720836696068969  -9.163711138006645  1.5374383917531638  16.140837861766826  14.875079629060647  12.001703999025805  120.000000
5.618340000000001  0.000000  0.000000  0.000000  -17.038157136819216  14.254561503059152  33.05661613538071  45.566499961454134  -4.6078785241063995  -9.626836548172845  6.985888063500037  12.837207197306215  12.015216531559364  11.917503145937738  120.000000
5.666360000000001  0.000000  0.000000  0.000000  -16.99320028109433  13.287045693493075  30.938850234246534  45.64829989823849  -3.5440899870275735  -10.071459382494231  15.094157338179588  10.11701543871256  6.7140926677682655  11.889978065293011  120.000000
5.714380000000001  0.000000  0.000000  0.000000  -17.047874596697287  12.296826457328567  28.92090686352733  45.74733767846408  -2.528417573766259  -10.498569255959046  26.740820387414214  8.095613358464568  -1.9286568189563247  11.94144016950441  120.000000
5.762400000000001  0.000000  0.000000  0.000000  -17.186252606964164  11.289518809072657  26.992450333170797  45.85602924139675  -1.5577098537642848  -10.908991677275257  41.747416802711435  6.881517214284308  -13.759695897877851  12.087596219455842  120.000000
5.810420000000001  0.000000  0.000000  0.000000  -17.38503378535465  10.267539828381004  25.135145708747498  45.9669785475976  -0.6321167622888437  -11.304516884250157  57.44926561354864  6.4704986665468285  -26.14977050508355  12.33787454767573  120.000000
5.858440000000001  0.000000  0.000000  0.000000  -17.621392434128648  9.233837618099383  23.327583385962065  46.07325157754076  0.24870832255349062  -11.682831879260295  70.15195819002841  6.6603068858949035  -35.45605519101716  12.693824322429851  120.000000
